<?xml version='1.0' encoding='UTF-8' standalone='no'?>
<!-- Created with Fritzing (http://www.fritzing.org/) -->
<svg xmlns:svg='http://www.w3.org/2000/svg' xmlns='http://www.w3.org/2000/svg' version='1.2' baseProfile='tiny' x='0in' y='0in' width='1.00787in' height='1.11417in' viewBox='0 0 72.5669 80.2205' >
<g partID='61130'><g  id="breadboard">
 <g  id="icon">
  <g  class="PCB">
   <path  d="M71.5589,0L1.04,0c-0.599999,0,-0.997999,0.399768,-0.997999,0.997421l0,56.7011c0,0.199884,0.0999999,0.399768,0.3,0.49971l4.994,2.29667c0.2,0.099942,0.3,0.299826,0.3,0.49971l0,17.17c0,1.09736,0.897999,1.99684,1.998,1.99684L70.5599,80.1615c1.098,0,1.998,-0.897479,1.998,-1.99684L72.5579,0.997421C72.5579,0.399768,72.1579,0,71.5589,0zM3.938,55.5038c-0.699999,0,-1.298,-0.599652,-1.298,-1.29725s0.599999,-1.29725,1.298,-1.29725c0.699999,0,1.298,0.599652,1.298,1.29725S4.636,55.5038,3.938,55.5038zM3.938,48.316c-0.699999,0,-1.298,-0.599652,-1.298,-1.29725c0,-0.698595,0.599999,-1.29725,1.298,-1.29725c0.699999,0,1.298,0.599652,1.298,1.29725C5.23599,47.7163,4.636,48.316,3.938,48.316zM3.938,41.1281c-0.699999,0,-1.298,-0.599652,-1.298,-1.29725c0,-0.699594,0.599999,-1.29725,1.298,-1.29725c0.699999,0,1.298,0.599652,1.298,1.29725S4.636,41.1281,3.938,41.1281zM3.938,33.9403c-0.699999,0,-1.298,-0.599652,-1.298,-1.29725c0,-0.698595,0.599999,-1.29725,1.298,-1.29725c0.699999,0,1.298,0.599652,1.298,1.29725C5.23599,33.3417,4.636,33.9403,3.938,33.9403zM3.938,26.7525c-0.699999,0,-1.298,-0.599652,-1.298,-1.29725c0,-0.698595,0.599999,-1.29725,1.298,-1.29725c0.699999,0,1.298,0.599652,1.298,1.29725C5.23599,26.1538,4.636,26.7525,3.938,26.7525zM3.938,19.5667c-0.699999,0,-1.298,-0.599652,-1.298,-1.29725s0.599999,-1.29725,1.298,-1.29725c0.699999,0,1.298,0.599652,1.298,1.29725S4.636,19.5667,3.938,19.5667zM3.938,12.3788c-0.699999,0,-1.298,-0.599652,-1.298,-1.29725s0.599999,-1.29725,1.298,-1.29725c0.699999,0,1.298,0.599652,1.298,1.29725S4.636,12.3788,3.938,12.3788zM3.938,5.19099c-0.699999,0,-1.298,-0.599652,-1.298,-1.29725c0,-0.699594,0.599999,-1.29725,1.298,-1.29725c0.699999,0,1.298,0.599652,1.298,1.29725S4.636,5.19099,3.938,5.19099zM68.6619,2.59549c0.699999,0,1.298,0.599652,1.298,1.29725c0,0.699594,-0.599999,1.29725,-1.298,1.29725s-1.298,-0.599652,-1.298,-1.29725C67.3639,3.19415,67.9639,2.59549,68.6619,2.59549zM68.6619,9.78233c0.699999,0,1.298,0.599652,1.298,1.29725s-0.599999,1.29725,-1.298,1.29725s-1.298,-0.599652,-1.298,-1.29725S67.9639,9.78233,68.6619,9.78233zM68.6619,16.9702c0.699999,0,1.298,0.599652,1.298,1.29725c0,0.698595,-0.599999,1.29725,-1.298,1.29725s-1.298,-0.599652,-1.298,-1.29725C67.3639,17.5698,67.9639,16.9702,68.6619,16.9702zM68.6619,24.158c0.699999,0,1.298,0.599652,1.298,1.29725c0,0.698595,-0.599999,1.29725,-1.298,1.29725s-1.298,-0.599652,-1.298,-1.29725C67.3639,24.7576,67.9639,24.158,68.6619,24.158zM68.6619,31.3458c0.699999,0,1.298,0.599652,1.298,1.29725c0,0.698595,-0.599999,1.29725,-1.298,1.29725s-1.298,-0.599652,-1.298,-1.29725C67.3639,31.9445,67.9639,31.3458,68.6619,31.3458zM68.6619,38.5337c0.699999,0,1.298,0.599652,1.298,1.29725c0,0.699594,-0.599999,1.29725,-1.298,1.29725s-1.298,-0.599652,-1.298,-1.29725C67.3639,39.1313,67.9639,38.5337,68.6619,38.5337zM68.6619,45.7195c0.699999,0,1.298,0.599652,1.298,1.29725c0,0.698595,-0.599999,1.29725,-1.298,1.29725s-1.298,-0.599652,-1.298,-1.29725C67.3639,46.3191,67.9639,45.7195,68.6619,45.7195zM68.6619,52.9073c0.699999,0,1.298,0.599652,1.298,1.29725s-0.599999,1.29725,-1.298,1.29725s-1.298,-0.599652,-1.298,-1.29725S67.9639,52.9073,68.6619,52.9073zM11.113,77.1383c-0.745999,0,-1.349,-0.60365,-1.349,-1.34822c0,-0.745568,0.603999,-1.34822,1.349,-1.34822c0.745999,0,1.349,0.60365,1.349,1.34822C12.462,76.5356,11.858,77.1383,11.113,77.1383zM11.113,69.9504c-0.745999,0,-1.349,-0.60365,-1.349,-1.34822c0,-0.745568,0.603999,-1.34822,1.349,-1.34822c0.745999,0,1.349,0.60365,1.349,1.34822C12.462,69.3478,11.858,69.9504,11.113,69.9504zM18.304,77.1383c-0.745999,0,-1.349,-0.60365,-1.349,-1.34822c0,-0.745568,0.603999,-1.34822,1.349,-1.34822s1.349,0.60365,1.349,1.34822C19.654,76.5356,19.049,77.1383,18.304,77.1383zM18.304,69.9504c-0.745999,0,-1.349,-0.60365,-1.349,-1.34822c0,-0.745568,0.603999,-1.34822,1.349,-1.34822s1.349,0.60365,1.349,1.34822C19.654,69.3478,19.049,69.9504,18.304,69.9504zM18.304,62.7636c-0.745999,0,-1.349,-0.60365,-1.349,-1.34822s0.603999,-1.34822,1.349,-1.34822s1.349,0.60365,1.349,1.34822S19.049,62.7636,18.304,62.7636zM18.304,55.5768c-0.745999,0,-1.349,-0.60365,-1.349,-1.34822c0,-0.745568,0.603999,-1.34822,1.349,-1.34822s1.349,0.60365,1.349,1.34822C19.654,54.9721,19.049,55.5768,18.304,55.5768zM18.304,48.3889c-0.745999,0,-1.349,-0.60365,-1.349,-1.34822s0.603999,-1.34822,1.349,-1.34822s1.349,0.60365,1.349,1.34822S19.049,48.3889,18.304,48.3889zM18.304,41.2011c-0.745999,0,-1.349,-0.60365,-1.349,-1.34822c0,-0.745568,0.603999,-1.34822,1.349,-1.34822s1.349,0.60365,1.349,1.34822C19.654,40.5965,19.049,41.2011,18.304,41.2011zM18.304,34.0133c-0.745999,0,-1.349,-0.60365,-1.349,-1.34822s0.603999,-1.34822,1.349,-1.34822s1.349,0.60365,1.349,1.34822C19.654,33.4106,19.049,34.0133,18.304,34.0133zM18.304,26.8254c-0.745999,0,-1.349,-0.60365,-1.349,-1.34822c0,-0.745568,0.603999,-1.34822,1.349,-1.34822s1.349,0.60365,1.349,1.34822C19.654,26.2228,19.049,26.8254,18.304,26.8254zM18.304,19.6386c-0.745999,0,-1.349,-0.60365,-1.349,-1.34822c0,-0.745568,0.603999,-1.34822,1.349,-1.34822s1.349,0.60365,1.349,1.34822C19.654,19.035,19.049,19.6386,18.304,19.6386zM18.304,12.4518c-0.745999,0,-1.349,-0.60365,-1.349,-1.34822c0,-0.745568,0.603999,-1.34822,1.349,-1.34822s1.349,0.60365,1.349,1.34822C19.654,11.8481,19.049,12.4518,18.304,12.4518zM18.304,5.26395c-0.745999,0,-1.349,-0.60365,-1.349,-1.34822s0.603999,-1.34822,1.349,-1.34822s1.349,0.60365,1.349,1.34822C19.654,4.6593,19.049,5.26395,18.304,5.26395zM25.496,77.1383c-0.745999,0,-1.349,-0.60365,-1.349,-1.34822c0,-0.745568,0.603999,-1.34822,1.349,-1.34822c0.745999,0,1.349,0.60365,1.349,1.34822C26.845,76.5356,26.241,77.1383,25.496,77.1383zM25.496,69.9504c-0.745999,0,-1.349,-0.60365,-1.349,-1.34822c0,-0.745568,0.603999,-1.34822,1.349,-1.34822c0.745999,0,1.349,0.60365,1.349,1.34822C26.845,69.3478,26.241,69.9504,25.496,69.9504zM25.496,62.7636c-0.745999,0,-1.349,-0.60365,-1.349,-1.34822s0.603999,-1.34822,1.349,-1.34822c0.745999,0,1.349,0.60365,1.349,1.34822S26.241,62.7636,25.496,62.7636zM25.496,55.5768c-0.745999,0,-1.349,-0.60365,-1.349,-1.34822c0,-0.745568,0.603999,-1.34822,1.349,-1.34822c0.745999,0,1.349,0.60365,1.349,1.34822C26.845,54.9721,26.241,55.5768,25.496,55.5768zM25.496,48.3889c-0.745999,0,-1.349,-0.60365,-1.349,-1.34822s0.603999,-1.34822,1.349,-1.34822c0.745999,0,1.349,0.60365,1.349,1.34822S26.241,48.3889,25.496,48.3889zM25.496,41.2011c-0.745999,0,-1.349,-0.60365,-1.349,-1.34822c0,-0.745568,0.603999,-1.34822,1.349,-1.34822c0.745999,0,1.349,0.60365,1.349,1.34822C26.845,40.5965,26.241,41.2011,25.496,41.2011zM25.496,34.0133c-0.745999,0,-1.349,-0.60365,-1.349,-1.34822s0.603999,-1.34822,1.349,-1.34822c0.745999,0,1.349,0.60365,1.349,1.34822S26.241,34.0133,25.496,34.0133zM25.496,26.8254c-0.745999,0,-1.349,-0.60365,-1.349,-1.34822c0,-0.745568,0.603999,-1.34822,1.349,-1.34822c0.745999,0,1.349,0.60365,1.349,1.34822C26.845,26.2228,26.241,26.8254,25.496,26.8254zM25.496,19.6386c-0.745999,0,-1.349,-0.60365,-1.349,-1.34822c0,-0.745568,0.603999,-1.34822,1.349,-1.34822c0.745999,0,1.349,0.60365,1.349,1.34822C26.845,19.035,26.241,19.6386,25.496,19.6386zM25.496,12.4518c-0.745999,0,-1.349,-0.60365,-1.349,-1.34822c0,-0.745568,0.603999,-1.34822,1.349,-1.34822c0.745999,0,1.349,0.60365,1.349,1.34822C26.845,11.8481,26.241,12.4518,25.496,12.4518zM25.496,5.26395c-0.745999,0,-1.349,-0.60365,-1.349,-1.34822s0.603999,-1.34822,1.349,-1.34822c0.745999,0,1.349,0.60365,1.349,1.34822C26.845,4.6593,26.241,5.26395,25.496,5.26395zM32.688,77.1383c-0.745999,0,-1.349,-0.60365,-1.349,-1.34822c0,-0.745568,0.603999,-1.34822,1.349,-1.34822c0.745999,0,1.349,0.60365,1.349,1.34822C34.037,76.5356,33.433,77.1383,32.688,77.1383zM32.688,69.9504c-0.745999,0,-1.349,-0.60365,-1.349,-1.34822c0,-0.745568,0.603999,-1.34822,1.349,-1.34822c0.745999,0,1.349,0.60365,1.349,1.34822C34.037,69.3478,33.433,69.9504,32.688,69.9504zM32.688,62.7636c-0.745999,0,-1.349,-0.60365,-1.349,-1.34822s0.603999,-1.34822,1.349,-1.34822c0.745999,0,1.349,0.60365,1.349,1.34822S33.433,62.7636,32.688,62.7636zM32.688,55.5768c-0.745999,0,-1.349,-0.60365,-1.349,-1.34822c0,-0.745568,0.603999,-1.34822,1.349,-1.34822c0.745999,0,1.349,0.60365,1.349,1.34822C34.037,54.9721,33.433,55.5768,32.688,55.5768zM32.688,48.3889c-0.745999,0,-1.349,-0.60365,-1.349,-1.34822s0.603999,-1.34822,1.349,-1.34822c0.745999,0,1.349,0.60365,1.349,1.34822S33.433,48.3889,32.688,48.3889zM32.688,41.2011c-0.745999,0,-1.349,-0.60365,-1.349,-1.34822c0,-0.745568,0.603999,-1.34822,1.349,-1.34822c0.745999,0,1.349,0.60365,1.349,1.34822C34.037,40.5965,33.433,41.2011,32.688,41.2011zM32.688,34.0133c-0.745999,0,-1.349,-0.60365,-1.349,-1.34822s0.603999,-1.34822,1.349,-1.34822c0.745999,0,1.349,0.60365,1.349,1.34822S33.433,34.0133,32.688,34.0133zM32.688,26.8254c-0.745999,0,-1.349,-0.60365,-1.349,-1.34822c0,-0.745568,0.603999,-1.34822,1.349,-1.34822c0.745999,0,1.349,0.60365,1.349,1.34822C34.037,26.2228,33.433,26.8254,32.688,26.8254zM32.688,19.6386c-0.745999,0,-1.349,-0.60365,-1.349,-1.34822c0,-0.745568,0.603999,-1.34822,1.349,-1.34822c0.745999,0,1.349,0.60365,1.349,1.34822C34.037,19.035,33.433,19.6386,32.688,19.6386zM32.688,12.4518c-0.745999,0,-1.349,-0.60365,-1.349,-1.34822c0,-0.745568,0.603999,-1.34822,1.349,-1.34822c0.745999,0,1.349,0.60365,1.349,1.34822C34.037,11.8481,33.433,12.4518,32.688,12.4518zM32.688,5.26395c-0.745999,0,-1.349,-0.60365,-1.349,-1.34822s0.603999,-1.34822,1.349,-1.34822c0.745999,0,1.349,0.60365,1.349,1.34822C34.037,4.6593,33.433,5.26395,32.688,5.26395zM39.879,77.1383c-0.745999,0,-1.349,-0.60365,-1.349,-1.34822c0,-0.745568,0.603999,-1.34822,1.349,-1.34822c0.745999,0,1.349,0.60365,1.349,1.34822C41.228,76.5356,40.624,77.1383,39.879,77.1383zM39.879,69.9504c-0.745999,0,-1.349,-0.60365,-1.349,-1.34822c0,-0.745568,0.603999,-1.34822,1.349,-1.34822c0.745999,0,1.349,0.60365,1.349,1.34822C41.228,69.3478,40.624,69.9504,39.879,69.9504zM39.879,62.7636c-0.745999,0,-1.349,-0.60365,-1.349,-1.34822s0.603999,-1.34822,1.349,-1.34822c0.745999,0,1.349,0.60365,1.349,1.34822S40.624,62.7636,39.879,62.7636zM39.879,55.5768c-0.745999,0,-1.349,-0.60365,-1.349,-1.34822c0,-0.745568,0.603999,-1.34822,1.349,-1.34822c0.745999,0,1.349,0.60365,1.349,1.34822C41.228,54.9721,40.624,55.5768,39.879,55.5768zM39.879,48.3889c-0.745999,0,-1.349,-0.60365,-1.349,-1.34822s0.603999,-1.34822,1.349,-1.34822c0.745999,0,1.349,0.60365,1.349,1.34822S40.624,48.3889,39.879,48.3889zM39.879,41.2011c-0.745999,0,-1.349,-0.60365,-1.349,-1.34822c0,-0.745568,0.603999,-1.34822,1.349,-1.34822c0.745999,0,1.349,0.60365,1.349,1.34822C41.228,40.5965,40.624,41.2011,39.879,41.2011zM39.879,34.0133c-0.745999,0,-1.349,-0.60365,-1.349,-1.34822s0.603999,-1.34822,1.349,-1.34822c0.745999,0,1.349,0.60365,1.349,1.34822S40.624,34.0133,39.879,34.0133zM39.879,26.8254c-0.745999,0,-1.349,-0.60365,-1.349,-1.34822c0,-0.745568,0.603999,-1.34822,1.349,-1.34822c0.745999,0,1.349,0.60365,1.349,1.34822C41.228,26.2228,40.624,26.8254,39.879,26.8254zM39.879,19.6386c-0.745999,0,-1.349,-0.60365,-1.349,-1.34822c0,-0.745568,0.603999,-1.34822,1.349,-1.34822c0.745999,0,1.349,0.60365,1.349,1.34822C41.228,19.035,40.624,19.6386,39.879,19.6386zM39.879,12.4518c-0.745999,0,-1.349,-0.60365,-1.349,-1.34822c0,-0.745568,0.603999,-1.34822,1.349,-1.34822c0.745999,0,1.349,0.60365,1.349,1.34822C41.228,11.8481,40.624,12.4518,39.879,12.4518zM39.879,5.26395c-0.745999,0,-1.349,-0.60365,-1.349,-1.34822s0.603999,-1.34822,1.349,-1.34822c0.745999,0,1.349,0.60365,1.349,1.34822C41.228,4.6593,40.624,5.26395,39.879,5.26395zM47.071,77.1383c-0.745999,0,-1.349,-0.60365,-1.349,-1.34822c0,-0.745568,0.603999,-1.34822,1.349,-1.34822c0.745999,0,1.349,0.60365,1.349,1.34822C48.42,76.5356,47.816,77.1383,47.071,77.1383zM47.071,69.9504c-0.745999,0,-1.349,-0.60365,-1.349,-1.34822c0,-0.745568,0.603999,-1.34822,1.349,-1.34822c0.745999,0,1.349,0.60365,1.349,1.34822C48.42,69.3478,47.816,69.9504,47.071,69.9504zM47.071,62.7636c-0.745999,0,-1.349,-0.60365,-1.349,-1.34822s0.603999,-1.34822,1.349,-1.34822c0.745999,0,1.349,0.60365,1.349,1.34822S47.816,62.7636,47.071,62.7636zM47.071,55.5768c-0.745999,0,-1.349,-0.60365,-1.349,-1.34822c0,-0.745568,0.603999,-1.34822,1.349,-1.34822c0.745999,0,1.349,0.60365,1.349,1.34822C48.42,54.9721,47.816,55.5768,47.071,55.5768zM47.071,48.3889c-0.745999,0,-1.349,-0.60365,-1.349,-1.34822s0.603999,-1.34822,1.349,-1.34822c0.745999,0,1.349,0.60365,1.349,1.34822S47.816,48.3889,47.071,48.3889zM47.071,41.2011c-0.745999,0,-1.349,-0.60365,-1.349,-1.34822c0,-0.745568,0.603999,-1.34822,1.349,-1.34822c0.745999,0,1.349,0.60365,1.349,1.34822C48.42,40.5965,47.816,41.2011,47.071,41.2011zM47.071,34.0133c-0.745999,0,-1.349,-0.60365,-1.349,-1.34822s0.603999,-1.34822,1.349,-1.34822c0.745999,0,1.349,0.60365,1.349,1.34822S47.816,34.0133,47.071,34.0133zM47.071,26.8254c-0.745999,0,-1.349,-0.60365,-1.349,-1.34822c0,-0.745568,0.603999,-1.34822,1.349,-1.34822c0.745999,0,1.349,0.60365,1.349,1.34822C48.42,26.2228,47.816,26.8254,47.071,26.8254zM47.071,19.6386c-0.745999,0,-1.349,-0.60365,-1.349,-1.34822c0,-0.745568,0.603999,-1.34822,1.349,-1.34822c0.745999,0,1.349,0.60365,1.349,1.34822C48.42,19.035,47.816,19.6386,47.071,19.6386zM47.071,12.4518c-0.745999,0,-1.349,-0.60365,-1.349,-1.34822c0,-0.745568,0.603999,-1.34822,1.349,-1.34822c0.745999,0,1.349,0.60365,1.349,1.34822C48.42,11.8481,47.816,12.4518,47.071,12.4518zM47.071,5.26395c-0.745999,0,-1.349,-0.60365,-1.349,-1.34822s0.603999,-1.34822,1.349,-1.34822c0.745999,0,1.349,0.60365,1.349,1.34822C48.42,4.6593,47.816,5.26395,47.071,5.26395zM54.2629,77.1383c-0.745999,0,-1.349,-0.60365,-1.349,-1.34822c0,-0.745568,0.603999,-1.34822,1.349,-1.34822c0.745999,0,1.349,0.60365,1.349,1.34822C55.6119,76.5356,55.0079,77.1383,54.2629,77.1383zM54.2629,69.9504c-0.745999,0,-1.349,-0.60365,-1.349,-1.34822c0,-0.745568,0.603999,-1.34822,1.349,-1.34822c0.745999,0,1.349,0.60365,1.349,1.34822C55.6119,69.3478,55.0079,69.9504,54.2629,69.9504zM54.2629,62.7636c-0.745999,0,-1.349,-0.60365,-1.349,-1.34822s0.603999,-1.34822,1.349,-1.34822c0.745999,0,1.349,0.60365,1.349,1.34822S55.0079,62.7636,54.2629,62.7636zM54.2629,55.5768c-0.745999,0,-1.349,-0.60365,-1.349,-1.34822c0,-0.745568,0.603999,-1.34822,1.349,-1.34822c0.745999,0,1.349,0.60365,1.349,1.34822C55.6119,54.9721,55.0079,55.5768,54.2629,55.5768zM54.2629,48.3889c-0.745999,0,-1.349,-0.60365,-1.349,-1.34822s0.603999,-1.34822,1.349,-1.34822c0.745999,0,1.349,0.60365,1.349,1.34822S55.0079,48.3889,54.2629,48.3889zM54.2629,41.2011c-0.745999,0,-1.349,-0.60365,-1.349,-1.34822c0,-0.745568,0.603999,-1.34822,1.349,-1.34822c0.745999,0,1.349,0.60365,1.349,1.34822C55.6119,40.5965,55.0079,41.2011,54.2629,41.2011zM54.2629,34.0133c-0.745999,0,-1.349,-0.60365,-1.349,-1.34822s0.603999,-1.34822,1.349,-1.34822c0.745999,0,1.349,0.60365,1.349,1.34822C55.6119,33.4106,55.0079,34.0133,54.2629,34.0133zM54.2629,26.8254c-0.745999,0,-1.349,-0.60365,-1.349,-1.34822c0,-0.745568,0.603999,-1.34822,1.349,-1.34822c0.745999,0,1.349,0.60365,1.349,1.34822C55.6119,26.2228,55.0079,26.8254,54.2629,26.8254zM54.2629,19.6386c-0.745999,0,-1.349,-0.60365,-1.349,-1.34822c0,-0.745568,0.603999,-1.34822,1.349,-1.34822c0.745999,0,1.349,0.60365,1.349,1.34822C55.6119,19.035,55.0079,19.6386,54.2629,19.6386zM54.2629,12.4518c-0.745999,0,-1.349,-0.60365,-1.349,-1.34822c0,-0.745568,0.603999,-1.34822,1.349,-1.34822c0.745999,0,1.349,0.60365,1.349,1.34822C55.6119,11.8481,55.0079,12.4518,54.2629,12.4518zM54.2629,5.26395c-0.745999,0,-1.349,-0.60365,-1.349,-1.34822s0.603999,-1.34822,1.349,-1.34822c0.745999,0,1.349,0.60365,1.349,1.34822C55.6119,4.6593,55.0079,5.26395,54.2629,5.26395zM61.4539,77.1383c-0.745999,0,-1.349,-0.60365,-1.349,-1.34822c0,-0.745568,0.603999,-1.34822,1.349,-1.34822c0.745999,0,1.349,0.60365,1.349,1.34822C62.8039,76.5356,62.1989,77.1383,61.4539,77.1383zM61.4539,69.9504c-0.745999,0,-1.349,-0.60365,-1.349,-1.34822c0,-0.745568,0.603999,-1.34822,1.349,-1.34822c0.745999,0,1.349,0.60365,1.349,1.34822C62.8039,69.3478,62.1989,69.9504,61.4539,69.9504zM61.4539,62.7636c-0.745999,0,-1.349,-0.60365,-1.349,-1.34822s0.603999,-1.34822,1.349,-1.34822c0.745999,0,1.349,0.60365,1.349,1.34822S62.1989,62.7636,61.4539,62.7636zM68.6459,77.1383c-0.745999,0,-1.349,-0.60365,-1.349,-1.34822c0,-0.745568,0.603999,-1.34822,1.349,-1.34822c0.745999,0,1.349,0.60365,1.349,1.34822C69.9949,76.5356,69.3909,77.1383,68.6459,77.1383zM68.6459,69.9504c-0.745999,0,-1.349,-0.60365,-1.349,-1.34822c0,-0.745568,0.603999,-1.34822,1.349,-1.34822c0.745999,0,1.349,0.60365,1.349,1.34822C69.9949,69.3478,69.3909,69.9504,68.6459,69.9504z" fill="#0D4C75"/>
  </g>
  <g transform="matrix(1, 0, 0, 1, 0.2835, 0)">
   <g >
    <g  class="silkscreen">
     <g transform="matrix(1, 0, 0, 1, 7.49999, 60.1651)">
      <g  fill="#EEEEEE" class="droid-sans-76527a-p16-10">
       <g >
        <path  d="M1.094,2.97727c0,0.0639629,-0.00999999,0.126926,-0.03,0.186892c-0.021,0.0609646,-0.0539999,0.112934,-0.0999999,0.158908S0.855999,3.40503,0.779999,3.43401C0.703999,3.46099,0.609999,3.47498,0.499,3.47498L0.333,3.47498l0,0.606648L0.128,4.08163L0.128,2.52054l0.399,0c0.0989999,0,0.184,0.0099942,0.255,0.0299826s0.13,0.049971,0.176,0.0889484s0.0809999,0.0869496,0.103,0.143917S1.094,2.90531,1.094,2.97727zM0.333,3.30608l0.142,0c0.0679999,0,0.128,-0.00599652,0.179,-0.0179896c0.051,-0.0109936,0.0929999,-0.0289832,0.127,-0.0549681C0.813999,3.20814,0.839999,3.17616,0.855999,3.13518c0.017,-0.0399768,0.025,-0.0889484,0.025,-0.145915c0,-0.101941,-0.03,-0.175898,-0.0899999,-0.22487c-0.0599999,-0.0489716,-0.154,-0.0729577,-0.282,-0.0729577L0.333,2.69144L0.333,3.30608z"/>
        <path  d="M1.993,4.08163L1.799,4.08163L1.799,3.1062c0,-0.0299826,0,-0.0629635,0,-0.0979432c0,-0.0349797,0.000999999,-0.0699594,0.002,-0.10394c0.000999999,-0.0339803,0.002,-0.0669612,0.003,-0.099942c0.000999999,-0.030982,0.002,-0.0599652,0.003,-0.0839513C1.795,2.73441,1.785,2.74541,1.775,2.7544c-0.00999999,0.0099942,-0.019,0.018989,-0.029,0.0269843c-0.00999999,0.00799536,-0.021,0.0179896,-0.031,0.0269843C1.703,2.81737,1.69,2.82936,1.675,2.84235L1.512,2.97128L1.406,2.84035l0.422,-0.318815l0.166,0L1.994,4.08163z"/>
        <path  d="M2.577,3.41402c0,-0.0739571,0.004,-0.147914,0.012,-0.222871S2.61,3.04623,2.629,2.97827c0.02,-0.0679606,0.046,-0.131923,0.0799999,-0.18989c0.034,-0.0579664,0.0769999,-0.107937,0.129,-0.150912c0.0519999,-0.0439745,0.115,-0.0769554,0.188,-0.101941C3.099,2.51054,3.184,2.49855,3.282,2.49855c0.014,0,0.029,0,0.046,0.00099942c0.017,0.00099942,0.034,0.00199884,0.051,0.00399768c0.018,0.00199884,0.034,0.00399768,0.05,0.00599652c0.016,0.00299826,0.03,0.00599652,0.042,0.0099942l0,0.164904C3.445,2.67545,3.417,2.66945,3.384,2.66545C3.352,2.66046,3.32,2.65846,3.288,2.65846c-0.0659999,0,-0.125,0.00799536,-0.175,0.0219872C3.063,2.69644,3.02,2.71842,2.983,2.74641C2.946,2.77339,2.916,2.80737,2.891,2.84535c-0.024,0.0389774,-0.044,0.080953,-0.0599999,0.127926C2.815,3.01925,2.804,3.06922,2.796,3.12219S2.784,3.22913,2.782,3.28609l0.013,0c0.015,-0.0249855,0.033,-0.049971,0.0539999,-0.0719583C2.87,3.19115,2.894,3.17316,2.922,3.15617C2.95,3.14118,2.981,3.12819,3.017,3.11819C3.051,3.1092,3.09,3.1042,3.134,3.1042c0.0699999,0,0.133,0.0109936,0.189,0.030982C3.38,3.15717,3.428,3.18715,3.468,3.22813S3.538,3.31808,3.56,3.37804c0.021,0.0589658,0.032,0.125927,0.032,0.200883c0,0.080953,-0.011,0.153911,-0.034,0.218873S3.502,3.91773,3.46,3.9627s-0.0939999,0.0799536,-0.154,0.10394c-0.0599999,0.0229867,-0.128,0.0359791,-0.203,0.0359791c-0.0739999,0,-0.143,-0.0139919,-0.207,-0.0419757c-0.0639999,-0.0269843,-0.12,-0.0699594,-0.167,-0.126926C2.682,3.87775,2.645,3.80579,2.618,3.71984C2.591,3.63389,2.577,3.53195,2.577,3.41402zM3.101,3.93971c0.044,0,0.0839999,-0.00799536,0.121,-0.0219872c0.036,-0.0149913,0.0669999,-0.0359791,0.0939999,-0.0659617c0.026,-0.0289832,0.046,-0.0659617,0.0609999,-0.111935c0.014,-0.0449739,0.021,-0.0989426,0.021,-0.159907c0,-0.049971,-0.00599999,-0.0949449,-0.018,-0.133922C3.368,3.40503,3.35,3.37204,3.326,3.34406C3.301,3.31608,3.271,3.29509,3.235,3.2801C3.198,3.26511,3.156,3.25811,3.107,3.25811c-0.049,0,-0.0939999,0.00799536,-0.135,0.0239861C2.932,3.29909,2.897,3.32107,2.868,3.34806S2.817,3.40503,2.801,3.43901C2.786,3.47399,2.778,3.50797,2.778,3.54195c0,0.0469728,0.00699999,0.0949449,0.021,0.142917c0.014,0.0469728,0.034,0.0899478,0.0609999,0.126926c0.027,0.037978,0.0609999,0.0679606,0.101,0.0929461C3,3.92772,3.047,3.93971,3.101,3.93971z"/>
        <path  d="M3.786,3.58492L3.786,3.40602l0.546999,0l0,0.178896L3.786,3.58492z"/>
        <path  d="M5.20599,4.08163L5.012,4.08163L5.012,3.1062c0,-0.0299826,0,-0.0629635,0,-0.0979432c0,-0.0349797,0.000999999,-0.0699594,0.002,-0.10394c0.000999999,-0.0339803,0.002,-0.0669612,0.003,-0.099942c0.000999999,-0.030982,0.002,-0.0599652,0.003,-0.0839513C5.008,2.73441,4.998,2.74541,4.988,2.7544c-0.00999999,0.0099942,-0.019,0.018989,-0.029,0.0269843c-0.00999999,0.00799536,-0.021,0.0179896,-0.031,0.0269843c-0.011,0.00899478,-0.024,0.0209878,-0.04,0.0329809L4.725,2.97128L4.619,2.84035l0.422,-0.318815l0.166,0L5.20699,4.08163z"/>
        <path  d="M6.80299,3.29909c0,0.125927,-0.00999999,0.238861,-0.028,0.338803s-0.049,0.183893,-0.0899999,0.252853S6.58899,4.01267,6.52399,4.04865C6.45899,4.08463,6.37899,4.10262,6.28599,4.10262c-0.0869999,0,-0.162,-0.018989,-0.227,-0.0549681S5.94199,3.9597,5.89999,3.89074C5.85699,3.82078,5.82599,3.73683,5.80499,3.63789c-0.021,-0.099942,-0.032,-0.212877,-0.032,-0.338803s0.00899999,-0.237862,0.028,-0.338803C5.81999,2.86034,5.84999,2.77639,5.89099,2.70843C5.93199,2.63947,5.98499,2.5875,6.04999,2.55052c0.0649999,-0.0359791,0.144,-0.0539687,0.236,-0.0539687c0.0869999,0,0.164,0.0179896,0.228,0.0539687C6.57899,2.5865,6.63199,2.63847,6.67499,2.70743C6.71799,2.77539,6.74999,2.85934,6.77099,2.95928S6.80299,3.17216,6.80299,3.29909zM5.97799,3.29909c0,0.106938,0.005,0.199884,0.017,0.279838C6.00499,3.65788,6.02199,3.72484,6.04699,3.77781c0.024,0.0529693,0.0559999,0.0929461,0.0949999,0.118931c0.04,0.0269843,0.0869999,0.0399768,0.144,0.0399768S6.39099,3.92472,6.43099,3.89774c0.04,-0.0259849,0.0719999,-0.0659617,0.0969999,-0.118931s0.044,-0.118931,0.0549999,-0.198885C6.59499,3.49997,6.59999,3.40602,6.59999,3.29909c0,-0.105939,-0.005,-0.199884,-0.017,-0.278838c-0.011,-0.0799536,-0.03,-0.145915,-0.0549999,-0.198885S6.46999,2.72842,6.43099,2.70243c-0.04,-0.0259849,-0.0879999,-0.0399768,-0.145,-0.0399768s-0.104,0.0139919,-0.144,0.0399768C6.10299,2.72842,6.07099,2.76839,6.04699,2.82036S6.00499,2.9393,5.99399,3.01925C5.98299,3.0992,5.97799,3.19215,5.97799,3.29909z"/>
       </g>
       <g >
        <path  d="M0.194,1.58308l0.571999,-1.3842L0,0.198885L0,0.0219872l0.955999,0l0,0.15491L0.392,1.58308L0.194,1.58308z"/>
        <path  d="M1.17,0.915469c0,-0.0739571,0.004,-0.147914,0.011,-0.222871c0.00699999,-0.0739571,0.02,-0.145915,0.038,-0.212877c0.018,-0.0679606,0.042,-0.131923,0.0739999,-0.18989c0.031,-0.0579664,0.0709999,-0.107937,0.119,-0.150912c0.048,-0.0429751,0.105,-0.0769554,0.173,-0.101941C1.651,0.0129925,1.73,0,1.82,0c0.013,0,0.027,0,0.042,0.00099942S1.894,0.00299826,1.91,0.0049971s0.031,0.00399768,0.046,0.00599652c0.014,0.00299826,0.027,0.00599652,0.039,0.0099942l0,0.164904C1.971,0.177897,1.944,0.170901,1.915,0.166903C1.885,0.161906,1.855,0.159907,1.826,0.159907c-0.0609999,0,-0.115,0.00799536,-0.161,0.0229867C1.619,0.197885,1.579,0.219872,1.544,0.247856C1.511,0.274841,1.482,0.308821,1.46,0.346799C1.437,0.385776,1.418,0.427752,1.404,0.474725S1.379,0.570669,1.373,0.623638C1.366,0.676608,1.362,0.730576,1.36,0.787543l0.012,0c0.013,-0.0249855,0.03,-0.049971,0.049,-0.0719583c0.02,-0.0219872,0.042,-0.0409762,0.0679999,-0.0579664C1.515,0.642627,1.543,0.629635,1.576,0.619641c0.032,-0.00899478,0.0679999,-0.0139919,0.108,-0.0139919c0.0639999,0,0.123,0.0109936,0.175,0.030982C1.911,0.658618,1.956,0.6896,1.992,0.729577C2.028,0.770553,2.057,0.820524,2.077,0.87949s0.03,0.125927,0.03,0.200883c0,0.080953,-0.011,0.153911,-0.032,0.218873s-0.051,0.11993,-0.0899999,0.164904c-0.04,0.0449739,-0.0869999,0.0799536,-0.143,0.10394C1.787,1.59208,1.725,1.60407,1.655,1.60407c-0.0669999,0,-0.131,-0.0139919,-0.19,-0.0419757c-0.0589999,-0.0269843,-0.111,-0.0699594,-0.154,-0.126926C1.268,1.3792,1.233,1.30724,1.208,1.22129C1.183,1.13534,1.17,1.0334,1.17,0.915469zM1.653,1.44116c0.041,0,0.0779999,-0.00799536,0.111,-0.0219872c0.034,-0.0149913,0.0619999,-0.0359791,0.0869999,-0.0659617c0.024,-0.0289832,0.043,-0.0659617,0.0569999,-0.111935c0.013,-0.0449739,0.02,-0.0989426,0.02,-0.159907c0,-0.049971,-0.005,-0.0949449,-0.017,-0.133922C1.9,0.906474,1.883,0.873493,1.861,0.84551c-0.022,-0.0269843,-0.05,-0.0489716,-0.0839999,-0.0629635C1.743,0.766555,1.704,0.759559,1.66,0.759559c-0.045,0,-0.0869999,0.00799536,-0.125,0.0239861S1.465,0.822523,1.439,0.849507S1.392,0.906474,1.377,0.940455S1.355,1.00941,1.355,1.04339c0,0.0469728,0.00599999,0.0949449,0.019,0.142917c0.012,0.0469728,0.031,0.0899478,0.0559999,0.126926c0.025,0.037978,0.0559999,0.0679606,0.0929999,0.0929461C1.561,1.42917,1.604,1.44116,1.653,1.44116z"/>
        <path  d="M2.756,0.625637c0.0669999,0,0.129,0.0099942,0.188,0.0289832s0.108,0.0489716,0.151,0.0869496c0.043,0.0389774,0.0769999,0.0859501,0.101,0.143917c0.024,0.056967,0.037,0.121929,0.037,0.196886c0,0.080953,-0.011,0.153911,-0.035,0.218873c-0.023,0.0649623,-0.0569999,0.11993,-0.103,0.164904S2.994,1.5451,2.928,1.56809c-0.0669999,0.0239861,-0.144,0.0359791,-0.23,0.0359791c-0.035,0,-0.0689999,-0.00199884,-0.102,-0.00599652C2.562,1.59607,2.529,1.59008,2.499,1.58408c-0.031,-0.00699594,-0.0599999,-0.0159907,-0.0879999,-0.0259849S2.358,1.53411,2.335,1.52012L2.335,1.33622c0.022,0.0169901,0.048,0.030982,0.0789999,0.0439745s0.0619999,0.0229867,0.0949999,0.0319815s0.0659999,0.0159907,0.0999999,0.0199884c0.034,0.0049971,0.0639999,0.00699594,0.0929999,0.00699594c0.0539999,0,0.102,-0.00599652,0.144,-0.0199884c0.042,-0.0129925,0.0779999,-0.0329809,0.107,-0.0619641C2.981,1.33023,3.004,1.29525,3.02,1.25327s0.023,-0.0919467,0.023,-0.148914c0,-0.101941,-0.03,-0.179896,-0.0889999,-0.232865C2.894,0.816526,2.807,0.789542,2.693,0.789542c-0.019,0,-0.038,0.00099942,-0.0599999,0.00299826S2.591,0.796538,2.57,0.799536C2.548,0.802535,2.528,0.805533,2.509,0.808531c-0.02,0.00399768,-0.036,0.00699594,-0.05,0.0099942L2.367,0.756561l0.0559999,-0.733575l0.700999,0l0,0.176897L2.583,0.199884l-0.04,0.44774c0.021,-0.0049971,0.05,-0.00899478,0.0849999,-0.0139919C2.665,0.627636,2.708,0.625637,2.756,0.625637z"/>
        <path  d="M4.374,1.58308L3.447,1.58308L3.447,1.41618l0.356,-0.405765C3.854,0.952448,3.899,0.899478,3.939,0.852506c0.04,-0.0479722,0.0739999,-0.0949449,0.102,-0.139919C4.069,0.666613,4.09,0.62064,4.105,0.574667s0.022,-0.0959444,0.022,-0.149913c0,-0.0419757,-0.00599999,-0.0789542,-0.018,-0.109936c-0.011,-0.0319815,-0.028,-0.0599652,-0.049,-0.0819525C4.04,0.209878,4.015,0.192888,3.985,0.181895C3.957,0.169901,3.924,0.163905,3.888,0.163905c-0.0639999,0,-0.122,0.0139919,-0.174,0.0419757C3.662,0.232865,3.612,0.267845,3.565,0.31082L3.462,0.183893c0.027,-0.0249855,0.0559999,-0.049971,0.0869999,-0.0719583S3.614,0.06896,3.65,0.0539687c0.036,-0.0169901,0.0739999,-0.0289832,0.114,-0.0389774C3.804,0.0049971,3.846,0,3.89,0c0.0649999,0,0.124,0.0099942,0.176,0.0289832C4.119,0.0479722,4.164,0.0749565,4.2,0.110936s0.0649999,0.0799536,0.0849999,0.131923c0.02,0.0519699,0.03,0.108937,0.03,0.174899c0,0.0609646,-0.00899999,0.117932,-0.027,0.1729S4.245,0.698595,4.214,0.752564C4.182,0.805533,4.145,0.857503,4.101,0.911471C4.057,0.96544,4.01,1.02041,3.959,1.07837L3.673,1.39719l0,0.00799536l0.700999,0L4.374,1.58308z"/>
        <path  d="M4.781,1.58308l0.571999,-1.3842L4.587,0.198885L4.587,0.0219872l0.955999,0l0,0.15491L4.979,1.58308L4.781,1.58308z"/>
        <path  d="M6.71499,1.58308L6.55199,1.10036L5.99899,1.10036L5.83299,1.58308L5.64299,1.58308l0.545999,-1.56709l0.173,0l0.546999,1.56709L6.71499,1.58308zM6.49299,0.923464L6.34199,0.470727C6.33799,0.457735,6.33299,0.441744,6.32699,0.423754S6.31499,0.385776,6.30999,0.363789C6.30299,0.342801,6.29699,0.319815,6.29099,0.297827C6.28499,0.273841,6.27899,0.251854,6.27399,0.228867c-0.005,0.0219872,-0.00999999,0.0449739,-0.016,0.0679606C6.25099,0.320814,6.24599,0.343801,6.23899,0.365788c-0.00599999,0.0209878,-0.012,0.0409762,-0.018,0.0599652C6.21599,0.442743,6.21099,0.458734,6.20699,0.470727L6.05999,0.923464L6.49299,0.923464z"/>
       </g>
      </g>
     </g>
     <g transform="matrix(1, 0, 0, 1, 67.7999, 60.6648)">
      <g  stroke-width="0" class="bottom-right-dot">
       <circle  fill="#EEEEEE" cy="0.799536" r="1.6" cx="0.799999"/>
      </g>
     </g>
     <g  stroke="#EEEEEE" fill="none" stroke-miterlimit="10" stroke-width="0.5" class="separator-lines">
      <polyline  points="14.511,57.5716,21.511,57.5716,21.511,0.604649,14.511,0.604649"/>
      <polyline  points="57.3899,0.604649,50.39,0.604649,50.39,57.5716,57.3899,57.5716"/>
     </g>
    </g>
    <g  stroke="#EEEEEE" fill="none" stroke-miterlimit="10" stroke-width="0.4" stroke-linejoin="round" stroke-linecap="round" class="labels">
     <g transform="matrix(1, 0, 0, 1, 8.49999, 0.299826)">
      <g  class="left-labels">
       <g  class="RST">
        <path  d="M2.2,6.53721L0,6.53721M0,6.53721l0,-1.16432M0,5.37288l0.324,-0.323812M0.324,5.05007L1.1,5.05007M1.1,5.05007l0.388,0.323812M1.488,5.37288l0,1.16432M1.488,5.76166L2.2,5.05007M0.324,2.72242L0,3.1102M0,3.1102l0,0.77555M0,3.88575l0.324,0.387775M0.324,4.27352l0.388,0M0.711999,4.27352L1.1,3.88575M1.1,3.88575L1.1,3.1102M1.1,3.1102l0.388,-0.387775M1.488,2.72242l0.324,0M1.812,2.72242L2.2,3.1102M2.2,3.1102l0,0.77555M2.2,3.88575L1.812,4.27352M2.2,1.23428L0,1.23428M0,1.94587l0,-1.48714" class="top90"/>
       </g>
       <g transform="matrix(1, 0, 0, 1, 0, 7.19583)">
        <g  class="A0">
         <path  d="M0,4.59733L0,3.1102M0,3.1102L0.775999,2.39861M0.775999,2.39861l0.775999,0.711587M1.553,3.1102L1.553,4.59733M0,3.49797l1.553,0M2.329,4.20956L2.329,2.72242M2.329,2.72242L2.718,2.39861M2.718,2.39861l0.711999,0M3.429,2.39861l0.388,0.323812M3.818,2.72242l0,1.48714M3.818,4.20956L3.429,4.59733M3.429,4.59733L2.718,4.59733M2.718,4.59733L2.329,4.20956M2.329,4.20956l1.488,-1.48714" class="left"/>
        </g>
       </g>
       <g transform="matrix(1, 0, 0, 1, 0, 14.3917)">
        <g  class="D0">
         <path  d="M0,2.39861l0,2.19872M0,4.59733l1.165,0M1.165,4.59733l0.388,-0.387775M1.553,4.20956L1.553,2.72242M1.553,2.72242L1.165,2.39861M1.165,2.39861L0,2.39861M2.329,4.20956L2.329,2.72242M2.329,2.72242L2.718,2.39861M2.718,2.39861l0.711999,0M3.429,2.39861l0.388,0.323812M3.818,2.72242l0,1.48714M3.818,4.20956L3.429,4.59733M3.429,4.59733L2.718,4.59733M2.718,4.59733L2.329,4.20956M2.329,4.20956l1.488,-1.48714" class="left"/>
        </g>
       </g>
       <g transform="matrix(1, 0, 0, 1, 0, 21.5875)">
        <g  class="D5">
         <path  d="M0,2.39861l0,2.19872M0,4.59733l1.165,0M1.165,4.59733l0.388,-0.387775M1.553,4.20956L1.553,2.72242M1.553,2.72242L1.165,2.39861M1.165,2.39861L0,2.39861M3.818,2.39861L2.329,2.39861M2.329,2.39861l0,1.09936M2.329,3.49797l0.711999,-0.387775M3.041,3.1102l0.388,0M3.429,3.1102L3.818,3.49797M3.818,3.49797l0,0.711587M3.818,4.20956L3.429,4.59733M3.429,4.59733L2.653,4.59733M2.653,4.59733L2.329,4.20956" class="left"/>
        </g>
       </g>
       <g transform="matrix(1, 0, 0, 1, 0, 28.7833)">
        <g  class="D6">
         <path  d="M0,2.39861l0,2.19872M0,4.59733l1.165,0M1.165,4.59733l0.388,-0.387775M1.553,4.20956L1.553,2.72242M1.553,2.72242L1.165,2.39861M1.165,2.39861L0,2.39861M3.818,2.39861L3.041,2.72242M3.041,2.72242L2.329,3.49797M2.329,3.49797l0,0.711587M2.653,4.59733L2.329,4.20956M2.653,4.59733l0.775999,0M3.429,4.59733l0.388,-0.387775M3.818,4.20956L3.818,3.88575M3.818,3.88575L3.429,3.49797M3.429,3.49797l-1.1,0" class="left"/>
        </g>
       </g>
       <g transform="matrix(1, 0, 0, 1, 0, 35.9791)">
        <g  class="D7">
         <path  d="M0,2.39861l0,2.19872M0,4.59733l1.165,0M1.165,4.59733l0.388,-0.387775M1.553,4.20956L1.553,2.72242M1.553,2.72242L1.165,2.39861M1.165,2.39861L0,2.39861M2.329,2.39861l1.488,0M3.818,2.39861l0,0.323812M3.818,2.72242L2.329,4.20956M2.329,4.20956L2.329,4.59733" class="left"/>
        </g>
       </g>
       <g transform="matrix(1, 0, 0, 1, 0, 43.175)">
        <g  class="D8">
         <path  d="M0,2.39861l0,2.19872M0,4.59733l1.165,0M1.165,4.59733l0.324,-0.387775M1.488,4.20956L1.488,2.72242M1.488,2.72242L1.165,2.39861M1.165,2.39861L0,2.39861M2.329,2.72242L2.653,2.39861M2.653,2.39861l0.775999,0M3.429,2.39861l0.388,0.323812M3.818,2.72242l0,0.387775M3.818,3.1102L3.429,3.49797M3.429,3.49797l0.388,0.387775M3.818,3.88575l0,0.323812M3.818,4.20956L3.429,4.59733M3.429,4.59733L2.653,4.59733M2.653,4.59733L2.329,4.20956M2.329,4.20956L2.329,3.88575M2.329,3.88575L2.653,3.49797M2.653,3.49797L2.329,3.1102M2.329,3.1102L2.329,2.72242M2.653,3.49797l0.775999,0" class="left"/>
        </g>
       </g>
       <g transform="matrix(1, 0, 0, 1, 0, 50.3708)">
        <g  class="3V3">
         <path  d="M0.324,6.53721L0,6.14943M0,6.14943l0,-0.77555M0,5.37288l0.324,-0.323812M0.324,5.05007l0.388,0M0.711999,5.05007L1.1,5.37288M1.1,5.37288l0,0.387775M1.1,5.37288l0.388,-0.323812M1.488,5.05007l0.324,0M1.812,5.05007L2.2,5.37288M2.2,5.37288l0,0.77555M2.2,6.14943L1.812,6.53721M0,4.20956l1.488,0M1.488,4.20956L2.2,3.49797M2.2,3.49797L1.488,2.72242M1.488,2.72242L0,2.72242M0.324,1.94587L0,1.5581M0,1.5581l0,-0.711587M0,0.846509l0.324,-0.387775M0.324,0.458734l0.388,0M0.711999,0.458734L1.1,0.846509M1.1,0.846509l0,0.323812M1.1,0.846509l0.388,-0.387775M1.488,0.458734l0.324,0M1.812,0.458734L2.2,0.846509M2.2,0.846509l0,0.711587M1.812,1.94587L2.2,1.5581" class="top90"/>
        </g>
       </g>
      </g>
     </g>
     <g transform="matrix(1, 0, 0, 1, 56.6999, 0.299826)">
      <g  class="right-labels">
       <g  class="TX">
        <path  d="M3.959,4.59733L3.959,2.39861M3.247,2.39861l1.488,0M6.99999,4.59733L5.51199,2.39861M6.99999,2.39861L5.51199,4.59733" class="right"/>
       </g>
       <g transform="matrix(1, 0, 0, 1, 0, 7.19583)">
        <g  class="RX">
         <path  d="M3.247,4.59733L3.247,2.39861M3.247,2.39861l1.1,0M4.347,2.39861l0.388,0.323812M4.735,2.72242L4.735,3.49797M4.735,3.49797L4.347,3.88575M4.347,3.88575l-1.1,0M3.959,3.88575L4.735,4.59733M6.99999,4.59733L5.51199,2.39861M6.99999,2.39861L5.51199,4.59733" class="right"/>
        </g>
       </g>
       <g transform="matrix(1, 0, 0, 1, 0, 14.3917)">
        <g  class="D1">
         <path  d="M3.247,2.39861l0,2.19872M3.247,4.59733l1.1,0M4.347,4.59733l0.388,-0.387775M4.735,4.20956L4.735,2.72242M4.735,2.72242L4.347,2.39861M4.347,2.39861l-1.1,0M5.51199,3.1102L6.22399,2.39861M6.22399,2.39861l0,2.19872M5.51199,4.59733L6.99999,4.59733" class="right"/>
        </g>
       </g>
       <g transform="matrix(1, 0, 0, 1, 0, 21.5875)">
        <g  class="D2">
         <path  d="M3.247,2.39861l0,2.19872M3.247,4.59733l1.1,0M4.347,4.59733l0.388,-0.387775M4.735,4.20956L4.735,2.72242M4.735,2.72242L4.347,2.39861M4.347,2.39861l-1.1,0M6.99999,4.59733L5.51199,4.59733M5.51199,4.59733L6.99999,3.1102M6.99999,3.1102L6.99999,2.72242M6.99999,2.72242L6.61199,2.39861M6.61199,2.39861L5.89999,2.39861M5.89999,2.39861L5.51199,2.72242" class="right"/>
        </g>
       </g>
       <g transform="matrix(1, 0, 0, 1, 0, 28.7833)">
        <g  class="D3">
         <path  d="M3.182,2.39861l0,2.19872M3.182,4.59733l1.165,0M4.347,4.59733l0.388,-0.387775M4.735,4.20956L4.735,2.72242M4.735,2.72242L4.347,2.39861M4.347,2.39861L3.182,2.39861M5.51199,2.72242L5.89999,2.39861M5.89999,2.39861l0.711999,0M6.61199,2.39861L6.99999,2.72242M6.99999,2.72242l0,0.387775M6.99999,3.1102L6.61199,3.49797M6.61199,3.49797L6.22399,3.49797M6.61199,3.49797L6.99999,3.88575M6.99999,3.88575l0,0.323812M6.99999,4.20956L6.61199,4.59733M6.61199,4.59733L5.89999,4.59733M5.89999,4.59733L5.51199,4.20956" class="right"/>
        </g>
       </g>
       <g transform="matrix(1, 0, 0, 1, 0, 35.9791)">
        <g  class="D4">
         <path  d="M3.182,2.39861l0,2.19872M3.182,4.59733l1.165,0M4.347,4.59733l0.388,-0.387775M4.735,4.20956L4.735,2.72242M4.735,2.72242L4.347,2.39861M4.347,2.39861L3.182,2.39861M6.61199,4.59733L6.61199,2.39861M6.61199,2.39861l-1.1,1.09936M5.51199,3.49797L6.99999,3.49797" class="right"/>
        </g>
       </g>
       <g transform="matrix(1, 0, 0, 1, 0, 43.175)">
        <g  class="GND">
         <path  d="M4.8,5.43785l0.324,-0.387775M4.8,5.43785l0,0.711587M5.12399,6.53721L4.8,6.14943M5.12399,6.53721l1.488,0M6.99999,6.14943L6.61199,6.53721M6.99999,6.14943L6.99999,5.43785M6.99999,5.43785L6.61199,5.05007M6.61199,5.05007L5.89999,5.05007M5.89999,5.05007l0,0.711587M6.99999,4.27352L4.8,4.27352M4.8,4.27352L6.99999,2.72242M6.99999,2.72242L4.8,2.72242M4.8,1.94587L6.99999,1.94587M6.99999,1.94587l0,-1.09936M6.99999,0.846509L6.61199,0.458734M6.61199,0.458734L5.12399,0.458734M5.12399,0.458734L4.8,0.846509M4.8,0.846509l0,1.09936" class="bot90"/>
        </g>
       </g>
       <g transform="matrix(1, 0, 0, 1, 0, 50.3708)">
        <g  class="5V">
         <path  d="M4.735,2.39861L3.182,2.39861M3.182,2.39861l0,1.09936M3.182,3.49797l0.775999,-0.387775M3.959,3.1102l0.388,0M4.347,3.1102L4.735,3.49797M4.735,3.49797l0,0.711587M4.735,4.20956L4.347,4.59733M4.347,4.59733L3.571,4.59733M3.571,4.59733L3.182,4.20956M5.51199,2.39861l0,1.48714M5.51199,3.88575L6.22399,4.59733M6.22399,4.59733L6.99999,3.88575M6.99999,3.88575L6.99999,2.39861" class="right"/>
        </g>
       </g>
      </g>
     </g>
    </g>
    <g  class="pads">
     <g transform="matrix(1, 0, 0, 1, 0, 0.321813)">
      <g  class="pads-left">
       <circle  stroke="#9A916C" id="connector0pin" fill="none" stroke-width="1.5" cy="3.59791" r="2.05" cx="3.6" class="pad-rst"/>
       <circle  stroke="#9A916C" id="connector1pin" fill="none" stroke-width="1.5" cy="10.7937" r="2.05" cx="3.6" class="pad-a0"/>
       <circle  stroke="#9A916C" id="connector2pin" fill="none" stroke-width="1.5" cy="17.9896" r="2.05" cx="3.6" class="pad-d0"/>
       <circle  stroke="#9A916C" id="connector3pin" fill="none" stroke-width="1.5" cy="25.1854" r="2.05" cx="3.6" class="pad-d5"/>
       <circle  stroke="#9A916C" id="connector4pin" fill="none" stroke-width="1.5" cy="32.3812" r="2.05" cx="3.6" class="pad-d6"/>
       <circle  stroke="#9A916C" id="connector5pin" fill="none" stroke-width="1.5" cy="39.577" r="2.05" cx="3.6" class="pad-d7"/>
       <circle  stroke="#9A916C" id="connector6pin" fill="none" stroke-width="1.5" cy="46.7729" r="2.05" cx="3.6" class="pad-d8"/>
       <circle  stroke="#9A916C" id="connector7pin" fill="none" stroke-width="1.5" cy="53.9687" r="2.05" cx="3.6" class="pad-3v3"/>
      </g>
     </g>
     <g transform="matrix(1, 0, 0, 1, 64.7999, 0.321813)">
      <g  class="pads-right">
       <circle  stroke="#9A916C" id="connector8pin" fill="none" stroke-width="1.5" cy="53.9687" r="2.05" cx="3.6" class="pad-5v"/>
       <circle  stroke="#9A916C" id="connector9pin" fill="none" stroke-width="1.5" cy="46.7729" r="2.05" cx="3.6" class="pad-g"/>
       <circle  stroke="#9A916C" id="connector10pin" fill="none" stroke-width="1.5" cy="39.577" r="2.05" cx="3.6" class="pad-d4"/>
       <circle  stroke="#9A916C" id="connector11pin" fill="none" stroke-width="1.5" cy="32.3812" r="2.05" cx="3.6" class="pad-d3"/>
       <circle  stroke="#9A916C" id="connector12pin" fill="none" stroke-width="1.5" cy="25.1854" r="2.05" cx="3.6" class="pad-d2"/>
       <circle  stroke="#9A916C" id="connector13pin" fill="none" stroke-width="1.5" cy="17.9896" r="2.05" cx="3.6" class="pad-d1"/>
       <circle  stroke="#9A916C" id="connector14pin" fill="none" stroke-width="1.5" cy="10.7937" r="2.05" cx="3.6" class="pad-rx"/>
       <circle  stroke="#9A916C" id="connector15pin" fill="none" stroke-width="1.5" cy="3.59791" r="2.05" cx="3.6" class="pad-tx"/>
      </g>
     </g>
    </g>
    <g  class="pads-proto">
     <g transform="matrix(1, 0, 0, 1, 7.19999, 0.321813)">
      <g  class="pads-x1">
       <circle  stroke="#9A916C" id="connector16pin" fill="none" stroke-width="1.5" cy="68.3604" r="2.05" cx="3.6" class="pad-x1-y10"/>
       <circle  stroke="#9A916C" id="connector17pin" fill="none" stroke-width="1.5" cy="75.5562" r="2.05" cx="3.6" class="pad-x1-y11"/>
      </g>
     </g>
     <g transform="matrix(1, 0, 0, 1, 14.4, 0.321813)">
      <g  class="pads-x2">
       <circle  stroke="#9A916C" id="connector18pin" fill="none" stroke-width="1.5" cy="3.59791" r="2.05" cx="3.6" class="pad-x2-y1"/>
       <circle  stroke="#9A916C" id="connector19pin" fill="none" stroke-width="1.5" cy="10.7937" r="2.05" cx="3.6" class="pad-x2-y2"/>
       <circle  stroke="#9A916C" id="connector20pin" fill="none" stroke-width="1.5" cy="17.9896" r="2.05" cx="3.6" class="pad-x2-y3"/>
       <circle  stroke="#9A916C" id="connector21pin" fill="none" stroke-width="1.5" cy="25.1854" r="2.05" cx="3.6" class="pad-x2-y4"/>
       <circle  stroke="#9A916C" id="connector22pin" fill="none" stroke-width="1.5" cy="32.3812" r="2.05" cx="3.6" class="pad-x2-y5"/>
       <circle  stroke="#9A916C" id="connector23pin" fill="none" stroke-width="1.5" cy="39.577" r="2.05" cx="3.6" class="pad-x2-y6"/>
       <circle  stroke="#9A916C" id="connector24pin" fill="none" stroke-width="1.5" cy="46.7729" r="2.05" cx="3.6" class="pad-x2-y7"/>
       <circle  stroke="#9A916C" id="connector25pin" fill="none" stroke-width="1.5" cy="53.9687" r="2.05" cx="3.6" class="pad-x2-y8"/>
       <circle  stroke="#9A916C" id="connector26pin" fill="none" stroke-width="1.5" cy="61.1645" r="2.05" cx="3.6" class="pad-x2-y9"/>
       <circle  stroke="#9A916C" id="connector27pin" fill="none" stroke-width="1.5" cy="68.3604" r="2.05" cx="3.6" class="pad-x2-y10"/>
       <circle  stroke="#9A916C" id="connector28pin" fill="none" stroke-width="1.5" cy="75.5562" r="2.05" cx="3.6" class="pad-x2-y11"/>
      </g>
     </g>
     <g transform="matrix(1, 0, 0, 1, 21.6, 0.321813)">
      <g  class="pads-x3">
       <circle  stroke="#9A916C" id="connector29pin" fill="none" stroke-width="1.5" cy="3.59791" r="2.05" cx="3.6" class="pad-x3-y1"/>
       <circle  stroke="#9A916C" id="connector30pin" fill="none" stroke-width="1.5" cy="10.7937" r="2.05" cx="3.6" class="pad-x3-y2"/>
       <circle  stroke="#9A916C" id="connector31pin" fill="none" stroke-width="1.5" cy="17.9896" r="2.05" cx="3.6" class="pad-x3-y3"/>
       <circle  stroke="#9A916C" id="connector32pin" fill="none" stroke-width="1.5" cy="25.1854" r="2.05" cx="3.6" class="pad-x3-y4"/>
       <circle  stroke="#9A916C" id="connector33pin" fill="none" stroke-width="1.5" cy="32.3812" r="2.05" cx="3.6" class="pad-x3-y5"/>
       <circle  stroke="#9A916C" id="connector34pin" fill="none" stroke-width="1.5" cy="39.577" r="2.05" cx="3.6" class="pad-x3-y6"/>
       <circle  stroke="#9A916C" id="connector35pin" fill="none" stroke-width="1.5" cy="46.7729" r="2.05" cx="3.6" class="pad-x3-y7"/>
       <circle  stroke="#9A916C" id="connector36pin" fill="none" stroke-width="1.5" cy="53.9687" r="2.05" cx="3.6" class="pad-x3-y8"/>
       <circle  stroke="#9A916C" id="connector37pin" fill="none" stroke-width="1.5" cy="61.1645" r="2.05" cx="3.6" class="pad-x3-y9"/>
       <circle  stroke="#9A916C" id="connector38pin" fill="none" stroke-width="1.5" cy="68.3604" r="2.05" cx="3.6" class="pad-x3-y10"/>
       <circle  stroke="#9A916C" id="connector39pin" fill="none" stroke-width="1.5" cy="75.5562" r="2.05" cx="3.6" class="pad-x3-y11"/>
      </g>
     </g>
     <g transform="matrix(1, 0, 0, 1, 28.8, 0.321813)">
      <g  class="pads-x4">
       <circle  stroke="#9A916C" id="connector40pin" fill="none" stroke-width="1.5" cy="3.59791" r="2.05" cx="3.6" class="pad-x4-y1"/>
       <circle  stroke="#9A916C" id="connector41pin" fill="none" stroke-width="1.5" cy="10.7937" r="2.05" cx="3.6" class="pad-x4-y2"/>
       <circle  stroke="#9A916C" id="connector42pin" fill="none" stroke-width="1.5" cy="17.9896" r="2.05" cx="3.6" class="pad-x4-y3"/>
       <circle  stroke="#9A916C" id="connector43pin" fill="none" stroke-width="1.5" cy="25.1854" r="2.05" cx="3.6" class="pad-x4-y4"/>
       <circle  stroke="#9A916C" id="connector44pin" fill="none" stroke-width="1.5" cy="32.3812" r="2.05" cx="3.6" class="pad-x4-y5"/>
       <circle  stroke="#9A916C" id="connector45pin" fill="none" stroke-width="1.5" cy="39.577" r="2.05" cx="3.6" class="pad-x4-y6"/>
       <circle  stroke="#9A916C" id="connector46pin" fill="none" stroke-width="1.5" cy="46.7729" r="2.05" cx="3.6" class="pad-x4-y7"/>
       <circle  stroke="#9A916C" id="connector47pin" fill="none" stroke-width="1.5" cy="53.9687" r="2.05" cx="3.6" class="pad-x4-y8"/>
       <circle  stroke="#9A916C" id="connector48pin" fill="none" stroke-width="1.5" cy="61.1645" r="2.05" cx="3.6" class="pad-x4-y9"/>
       <circle  stroke="#9A916C" id="connector49pin" fill="none" stroke-width="1.5" cy="68.3604" r="2.05" cx="3.6" class="pad-x4-y10"/>
       <circle  stroke="#9A916C" id="connector50pin" fill="none" stroke-width="1.5" cy="75.5562" r="2.05" cx="3.6" class="pad-x4-y11"/>
      </g>
     </g>
     <g transform="matrix(1, 0, 0, 1, 36, 0.321813)">
      <g  class="pads-x5">
       <circle  stroke="#9A916C" id="connector51pin" fill="none" stroke-width="1.5" cy="3.59791" r="2.05" cx="3.6" class="pad-x5-y1"/>
       <circle  stroke="#9A916C" id="connector52pin" fill="none" stroke-width="1.5" cy="10.7937" r="2.05" cx="3.6" class="pad-x5-y2"/>
       <circle  stroke="#9A916C" id="connector53pin" fill="none" stroke-width="1.5" cy="17.9896" r="2.05" cx="3.6" class="pad-x5-y3"/>
       <circle  stroke="#9A916C" id="connector54pin" fill="none" stroke-width="1.5" cy="25.1854" r="2.05" cx="3.6" class="pad-x5-y4"/>
       <circle  stroke="#9A916C" id="connector55pin" fill="none" stroke-width="1.5" cy="32.3812" r="2.05" cx="3.6" class="pad-x5-y5"/>
       <circle  stroke="#9A916C" id="connector56pin" fill="none" stroke-width="1.5" cy="39.577" r="2.05" cx="3.6" class="pad-x5-y6"/>
       <circle  stroke="#9A916C" id="connector57pin" fill="none" stroke-width="1.5" cy="46.7729" r="2.05" cx="3.6" class="pad-x5-y7"/>
       <circle  stroke="#9A916C" id="connector58pin" fill="none" stroke-width="1.5" cy="53.9687" r="2.05" cx="3.6" class="pad-x5-y8"/>
       <circle  stroke="#9A916C" id="connector59pin" fill="none" stroke-width="1.5" cy="61.1645" r="2.05" cx="3.6" class="pad-x5-y9"/>
       <circle  stroke="#9A916C" id="connector60pin" fill="none" stroke-width="1.5" cy="68.3604" r="2.05" cx="3.6" class="pad-x5-y10"/>
       <circle  stroke="#9A916C" id="connector61pin" fill="none" stroke-width="1.5" cy="75.5562" r="2.05" cx="3.6" class="pad-x5-y11"/>
      </g>
     </g>
     <g transform="matrix(1, 0, 0, 1, 43.2, 0.321813)">
      <g  class="pads-x6">
       <circle  stroke="#9A916C" id="connector62pin" fill="none" stroke-width="1.5" cy="3.59791" r="2.05" cx="3.6" class="pad-x6-y1"/>
       <circle  stroke="#9A916C" id="connector63pin" fill="none" stroke-width="1.5" cy="10.7937" r="2.05" cx="3.6" class="pad-x6-y2"/>
       <circle  stroke="#9A916C" id="connector64pin" fill="none" stroke-width="1.5" cy="17.9896" r="2.05" cx="3.6" class="pad-x6-y3"/>
       <circle  stroke="#9A916C" id="connector65pin" fill="none" stroke-width="1.5" cy="25.1854" r="2.05" cx="3.6" class="pad-x6-y4"/>
       <circle  stroke="#9A916C" id="connector66pin" fill="none" stroke-width="1.5" cy="32.3812" r="2.05" cx="3.6" class="pad-x6-y5"/>
       <circle  stroke="#9A916C" id="connector67pin" fill="none" stroke-width="1.5" cy="39.577" r="2.05" cx="3.6" class="pad-x6-y6"/>
       <circle  stroke="#9A916C" id="connector68pin" fill="none" stroke-width="1.5" cy="46.7729" r="2.05" cx="3.6" class="pad-x6-y7"/>
       <circle  stroke="#9A916C" id="connector69pin" fill="none" stroke-width="1.5" cy="53.9687" r="2.05" cx="3.6" class="pad-x6-y8"/>
       <circle  stroke="#9A916C" id="connector70pin" fill="none" stroke-width="1.5" cy="61.1645" r="2.05" cx="3.6" class="pad-x6-y9"/>
       <circle  stroke="#9A916C" id="connector71pin" fill="none" stroke-width="1.5" cy="68.3604" r="2.05" cx="3.6" class="pad-x6-y10"/>
       <circle  stroke="#9A916C" id="connector72pin" fill="none" stroke-width="1.5" cy="75.5562" r="2.05" cx="3.6" class="pad-x6-y11"/>
      </g>
     </g>
     <g transform="matrix(1, 0, 0, 1, 50.4, 0.321813)">
      <g  class="pads-x7">
       <circle  stroke="#9A916C" id="connector73pin" fill="none" stroke-width="1.5" cy="3.59791" r="2.05" cx="3.6" class="pad-x7-y1"/>
       <circle  stroke="#9A916C" id="connector74pin" fill="none" stroke-width="1.5" cy="10.7937" r="2.05" cx="3.6" class="pad-x7-y2"/>
       <circle  stroke="#9A916C" id="connector75pin" fill="none" stroke-width="1.5" cy="17.9896" r="2.05" cx="3.6" class="pad-x7-y3"/>
       <circle  stroke="#9A916C" id="connector76pin" fill="none" stroke-width="1.5" cy="25.1854" r="2.05" cx="3.6" class="pad-x7-y4"/>
       <circle  stroke="#9A916C" id="connector77pin" fill="none" stroke-width="1.5" cy="32.3812" r="2.05" cx="3.6" class="pad-x7-y5"/>
       <circle  stroke="#9A916C" id="connector78pin" fill="none" stroke-width="1.5" cy="39.577" r="2.05" cx="3.6" class="pad-x7-y6"/>
       <circle  stroke="#9A916C" id="connector79pin" fill="none" stroke-width="1.5" cy="46.7729" r="2.05" cx="3.6" class="pad-x7-y7"/>
       <circle  stroke="#9A916C" id="connector80pin" fill="none" stroke-width="1.5" cy="53.9687" r="2.05" cx="3.6" class="pad-x7-y8"/>
       <circle  stroke="#9A916C" id="connector81pin" fill="none" stroke-width="1.5" cy="61.1645" r="2.05" cx="3.6" class="pad-x7-y9"/>
       <circle  stroke="#9A916C" id="connector82pin" fill="none" stroke-width="1.5" cy="68.3604" r="2.05" cx="3.6" class="pad-x7-y10"/>
       <circle  stroke="#9A916C" id="connector83pin" fill="none" stroke-width="1.5" cy="75.5562" r="2.05" cx="3.6" class="pad-x7-y11"/>
      </g>
     </g>
     <g transform="matrix(1, 0, 0, 1, 57.5999, 0.321813)">
      <g  class="pads-x8">
       <circle  stroke="#9A916C" id="connector84pin" fill="none" stroke-width="1.5" cy="61.1645" r="2.05" cx="3.6" class="pad-x8-y9"/>
       <circle  stroke="#9A916C" id="connector85pin" fill="none" stroke-width="1.5" cy="68.3604" r="2.05" cx="3.6" class="pad-x8-y10"/>
       <circle  stroke="#9A916C" id="connector86pin" fill="none" stroke-width="1.5" cy="75.5562" r="2.05" cx="3.6" class="pad-x8-y11"/>
      </g>
     </g>
     <g transform="matrix(1, 0, 0, 1, 64.7999, 0.321813)">
      <g  class="pads-x9">
       <circle  stroke="#9A916C" id="connector87pin" fill="none" stroke-width="1.5" cy="68.3604" r="2.05" cx="3.6" class="pad-x9-y10"/>
       <circle  stroke="#9A916C" id="connector88pin" fill="none" stroke-width="1.5" cy="75.5562" r="2.05" cx="3.6" class="pad-x9-y11"/>
      </g>
     </g>
    </g>
   </g>
  </g>
 </g>
</g>
</g><g partID='61290'><g transform='translate(11.0832,3.89056)' ><g transform="matrix(1, 0, 0, 1, 0, -769.89)">
<g id="breadboard">
<g>
<g transform="matrix(1, 0, 0, 1, 0, 0.001944)">
<rect stroke-opacity="1" rx="1.8" y="776.368" width="36" stroke="#000000" id="rect5185" fill="#343434" x="7.2" style="fill-rule:evenodd;stroke-miterlimit:4;stroke-dasharray:none;display:inline" stroke-width="0.144" fill-opacity="1" height="43.92"/>
</g>
<g transform="matrix(1, 0, 0, 1, 0, 0.001944)">
<rect y="820.288" width="2.16" stroke="none" id="rect5470" fill="#b3b3b3" x="13.32" style="fill-rule:evenodd;display:inline" fill-opacity="1" height="14.4"/>
</g>
<g transform="matrix(1, 0, 0, 1, 0, 0.001944)">
<rect y="820.288" width="2.16" stroke="none" id="rect5476" fill="#b3b3b3" x="20.52" style="fill-rule:evenodd;display:inline" fill-opacity="1" height="14.4"/>
</g>
<g transform="matrix(1, 0, 0, 1, 0, 0.001944)">
<rect y="820.288" width="2.16" stroke="none" id="rect5478" fill="#b3b3b3" x="27.72" style="fill-rule:evenodd;display:inline" fill-opacity="1" height="14.4"/>
</g>
<g transform="matrix(1, 0, 0, 1, 0, 0.001944)">
<rect y="820.288" width="2.16" stroke="none" id="rect5480" fill="#b3b3b3" x="34.92" style="fill-rule:evenodd;display:inline" fill-opacity="1" height="14.4"/>
</g>
<g transform="matrix(1, 0, 0, 1, 0, 0.001944)">
<rect y="833.248" width="2.88" stroke="none" id="connector1" fill="none" x="12.96" style="display:inline" height="2.88"/>
</g>
<g transform="matrix(1, 0, 0, 1, 0, 0.001944)">
<rect y="833.248" width="2.88" stroke="none" id="connector2" fill="none" x="20.16" style="display:inline" height="2.88"/>
</g>
<g transform="matrix(1, 0, 0, 1, 0, 0.001944)">
<rect y="833.248" width="2.88" stroke="none" id="connector3" fill="none" x="27.36" style="display:inline" height="2.88"/>
</g>
<g transform="matrix(1, 0, 0, 1, 0, 0.001944)">
<rect y="833.248" width="2.88" stroke="none" id="connector4" fill="none" x="34.56" style="display:inline" height="2.88"/>
</g>
<rect stroke-opacity="1" y="781.77" width="16.92" stroke="#000000" id="rect5401" fill="#d7f4ee" x="11.88" style="fill-rule:evenodd;stroke-linecap:round;stroke-linejoin:miter;stroke-miterlimit:4;stroke-dasharray:none;display:inline" stroke-width="0.229092" fill-opacity="0.63586958" height="24.12"/>
<rect stroke-opacity="1" rx="1.41061" y="777.09" width="34.56" stroke="#316691" id="rect5406" fill="none" x="7.92" style="stroke-linecap:round;stroke-linejoin:miter;stroke-miterlimit:4;stroke-dasharray:none;display:inline" stroke-width="1.44" height="42.48"/>
<path stroke-opacity="1" d="m9,776.375c-0.9972,0,-1.8,0.8028,-1.8,1.8l0,9,7.2,0,0,2.875,-7.2,0,0,2.875,7.2,0,0,2.875,-7.2,0,0,2.9,7.2,0,0,2.87496,-7.2,0,0,2.87504,7.2,0,0,2.87496,-7.2,0,0,2.87504,7.2,0,0,2.9,-7.2,0,0,5.4c0,0.9972,0.8028,1.8,1.8,1.8l32.4,0c0.9972,0,1.8,-0.8028,1.8,-1.8l0,-5.4,-7.2,0,0,-2.9,7.2,0,0,-2.87504,-7.2,0,0,-2.87496,7.2,0,0,-2.87504,-7.2,0,0,-2.87496,7.2,0,0,-2.9,-7.2,0,0,-2.875,7.2,0,0,-2.875,-7.2,0,0,-2.875,7.2,0,0,-9c0,-0.9972,-0.8028,-1.8,-1.8,-1.8l-9,0,0,7.2,-2.875,0,0,-7.2,-2.875,0,0,7.2,-2.9,0,0,-7.2,-2.875,0,0,7.2,-2.875,0,0,-7.2,-9,0zm9,10.8,2.875,0,0,2.875,-2.875,0,0,-2.875zm5.75,0,2.9,0,0,2.875,-2.9,0,0,-2.875zm5.775,0,2.875,0,0,2.875,-2.875,0,0,-2.875zm-11.525,5.75,2.875,0,0,2.875,-2.875,0,0,-2.875zm5.75,0,2.9,0,0,2.875,-2.9,0,0,-2.875zm5.775,0,2.875,0,0,2.875,-2.875,0,0,-2.875zM18,798.7l2.875,0,0,2.87496,-2.875,0,0,-2.87496zm5.75,0,2.9,0,0,2.87496,-2.9,0,0,-2.87496zm5.775,0,2.875,0,0,2.87496,-2.875,0,0,-2.87496zm-11.525,5.75,2.875,0,0,2.87496,-2.875,0,0,-2.87496zm5.75,0,2.9,0,0,2.87496,-2.9,0,0,-2.87496zm5.775,0,2.875,0,0,2.87496,-2.875,0,0,-2.87496zM18,810.2l2.875,0,0,2.9,-2.875,0,0,-2.9zm5.75,0,2.9,0,0,2.9,-2.9,0,0,-2.9zm5.775,0,2.875,0,0,2.9,-2.875,0,0,-2.9z" stroke="#000000" id="rect4672" fill="#48a1d1" style="fill-rule:evenodd;stroke-miterlimit:4;stroke-dasharray:none;display:inline" stroke-width="0.144" fill-opacity="1"/>
<g transform="matrix(1, 0, 0, 1, 2.67029e-07, 7.2)">
<g stroke-opacity="0.70652173" stroke="#ffffff" id="g5460" style="stroke-miterlimit:4;stroke-dasharray:none" stroke-width="0.504">
<path stroke-opacity="0.70652173" d="m9,769.89,7.56,0m-8.64,1.07998c0,-0.596472,0.483533,-1.08,1.08,-1.08m-1.08,9.36002,0,-8.28" stroke="#ffffff" id="path5415" fill="none" style="stroke-linecap:round;stroke-linejoin:miter;stroke-miterlimit:4;stroke-dasharray:none" stroke-width="0.504"/>
<path stroke-opacity="0.70652173" d="m7.92,783.57,0,1.44" stroke="#ffffff" id="path5422" fill="none" style="stroke-linecap:round;stroke-linejoin:miter;stroke-miterlimit:4;stroke-dasharray:none" stroke-width="0.504"/>
<path stroke-opacity="0.70652173" d="m7.92,789.33,0,1.44" stroke="#ffffff" id="path5426" fill="none" style="color:#000000;stroke-linecap:round;stroke-linejoin:miter;stroke-miterlimit:4;stroke-dasharray:none;stroke-dashoffset:0;marker:none;visibility:visible;display:inline;overflow:visible;enable-background:accumulate" stroke-width="0.504"/>
<path stroke-opacity="0.70652173" d="m7.92,795.09,0,1.44" stroke="#ffffff" id="path5428" fill="none" style="color:#000000;stroke-linecap:round;stroke-linejoin:miter;stroke-miterlimit:4;stroke-dasharray:none;stroke-dashoffset:0;marker:none;visibility:visible;display:inline;overflow:visible;enable-background:accumulate" stroke-width="0.504"/>
<path stroke-opacity="0.70652173" d="m7.92,800.85,0,1.44" stroke="#ffffff" id="path5430" fill="none" style="color:#000000;stroke-linecap:round;stroke-linejoin:miter;stroke-miterlimit:4;stroke-dasharray:none;stroke-dashoffset:0;marker:none;visibility:visible;display:inline;overflow:visible;enable-background:accumulate" stroke-width="0.504"/>
<path stroke-opacity="0.70652173" d="m7.92,806.97,0,3.6" stroke="#ffffff" id="path5432" fill="none" style="color:#000000;stroke-linecap:round;stroke-linejoin:miter;stroke-miterlimit:4;stroke-dasharray:none;stroke-dashoffset:0;marker:none;visibility:visible;display:inline;overflow:visible;enable-background:accumulate" stroke-width="0.504"/>
</g>
</g>
<g transform="matrix(1, 0, 0, 1, 2.67029e-07, 7.2)">
<g stroke-opacity="0.06521738" stroke="#000000" id="g5510">
<path stroke-opacity="0.06521738" d="m42.48,811.29,0,-4.68m0,4.68c0,0.59648,-0.483533,1.08,-1.08,1.08m-4.68,0,4.68,0" stroke="#000000" id="path5498" fill="none" style="color:#000000;stroke-linecap:round;stroke-linejoin:miter;stroke-miterlimit:4;stroke-dasharray:none;stroke-dashoffset:0;marker:none;visibility:visible;display:inline;overflow:visible;enable-background:accumulate" stroke-width="0.36"/>
<path stroke-opacity="0.06521738" d="m42.48,802.29,0,-1.44" stroke="#000000" id="path5502" fill="none" style="color:#000000;stroke-linecap:round;stroke-linejoin:miter;stroke-miterlimit:4;stroke-dasharray:none;stroke-dashoffset:0;marker:none;visibility:visible;display:inline;overflow:visible;enable-background:accumulate" stroke-width="0.36"/>
<path stroke-opacity="0.06521738" d="m42.48,796.53,0,-1.44" stroke="#000000" id="path5504" fill="none" style="color:#000000;stroke-linecap:round;stroke-linejoin:miter;stroke-miterlimit:4;stroke-dasharray:none;stroke-dashoffset:0;marker:none;visibility:visible;display:inline;overflow:visible;enable-background:accumulate" stroke-width="0.36"/>
<path stroke-opacity="0.06521738" d="m42.48,790.77,0,-1.44" stroke="#000000" id="path5506" fill="none" style="color:#000000;stroke-linecap:round;stroke-linejoin:miter;stroke-miterlimit:4;stroke-dasharray:none;stroke-dashoffset:0;marker:none;visibility:visible;display:inline;overflow:visible;enable-background:accumulate" stroke-width="0.36"/>
<path stroke-opacity="0.06521738" d="m42.48,785.01,0,-1.44" stroke="#000000" id="path5508" fill="none" style="color:#000000;stroke-linecap:round;stroke-linejoin:miter;stroke-miterlimit:4;stroke-dasharray:none;stroke-dashoffset:0;marker:none;visibility:visible;display:inline;overflow:visible;enable-background:accumulate" stroke-width="0.36"/>
</g>
</g>
</g>
</g>
</g>
</g></g><g partID='62680'><line stroke-linecap='round' stroke='#8c0000' x1='11.0747' y1='68.6894' x2='11.0747' y2='61.4233' stroke-width='3.2' /><line stroke-linecap='round' stroke='#cc1414' x1='11.0747' y1='68.6894' x2='11.0747' y2='61.4233' stroke-width='1.6' /></g><g partID='62610'><line stroke-linecap='round' stroke='#8c0000' x1='25.4835' y1='68.6822' x2='11.0747' y2='68.6894' stroke-width='3.2' /><line stroke-linecap='round' stroke='#cc1414' x1='25.4835' y1='68.6822' x2='11.0747' y2='68.6894' stroke-width='1.6' /></g><g partID='62750'><line stroke-linecap='round' stroke='#8c0000' x1='11.0747' y1='61.4233' x2='3.8835' y2='54.2905' stroke-width='3.2' /><line stroke-linecap='round' stroke='#cc1414' x1='11.0747' y1='61.4233' x2='3.8835' y2='54.2905' stroke-width='1.6' /></g><g partID='62820'><line stroke-linecap='round' stroke='#00a0c6' x1='68.6834' y1='32.703' x2='57.8137' y2='32.7514' stroke-width='3.2' /><line stroke-linecap='round' stroke='#33ffc5' x1='68.6834' y1='32.703' x2='57.8137' y2='32.7514' stroke-width='1.6' /></g><g partID='62960'><line stroke-linecap='round' stroke='#00a0c6' x1='57.8137' y1='75.9556' x2='39.9429' y2='75.9556' stroke-width='3.2' /><line stroke-linecap='round' stroke='#33ffc5' x1='57.8137' y1='75.9556' x2='39.9429' y2='75.9556' stroke-width='1.6' /></g><g partID='63030'><line stroke-linecap='round' stroke='#00a0c6' x1='57.8137' y1='32.7514' x2='57.8137' y2='75.9556' stroke-width='3.2' /><line stroke-linecap='round' stroke='#33ffc5' x1='57.8137' y1='32.7514' x2='57.8137' y2='75.9556' stroke-width='1.6' /></g><g partID='62890'><line stroke-linecap='round' stroke='#00a0c6' x1='39.9429' y1='75.9556' x2='39.8832' y2='68.6905' stroke-width='3.2' /><line stroke-linecap='round' stroke='#33ffc5' x1='39.9429' y1='75.9556' x2='39.8832' y2='68.6905' stroke-width='1.6' /></g><g partID='63100'><line stroke-linecap='round' stroke='#000000' x1='68.6834' y1='47.0947' x2='47.0127' y2='47.0873' stroke-width='3.2' /><line stroke-linecap='round' stroke='#404040' x1='68.6834' y1='47.0947' x2='47.0127' y2='47.0873' stroke-width='1.6' /></g><g partID='63170'><line stroke-linecap='round' stroke='#000000' x1='47.0127' y1='47.0873' x2='47.0832' y2='68.6905' stroke-width='3.2' /><line stroke-linecap='round' stroke='#404040' x1='47.0127' y1='47.0873' x2='47.0832' y2='68.6905' stroke-width='1.6' /></g></svg>